<svg id="Layer_1" data-name="Layer 1" xmlns="http://www.w3.org/2000/svg" viewBox="0 0 31.92 31.92"><defs><style>.cls-1{fill:#d22856;}</style></defs><title>contrast</title><path class="cls-1" d="M-19.46-4A12,12,0,0,1-7.5,8a12,12,0,0,1-12,12,12,12,0,0,1-12-12,12,12,0,0,1,12-12m0-4a16,16,0,0,0-16,16,16,16,0,0,0,16,16A16,16,0,0,0-3.5,8a16,16,0,0,0-16-16Z" transform="translate(35.42 7.96)"/><path class="cls-1" d="M-19.46,16.33a8.52,8.52,0,0,0,8.52-8.52A8.53,8.53,0,0,0-19.46-.71" transform="translate(35.42 7.96)"/></svg>