<svg xmlns="http://www.w3.org/2000/svg" xmlns:xlink="http://www.w3.org/1999/xlink">

  <symbol viewBox="0 0 31.37 22.69" id="icon-yes">
    <path d="M29.94.44a1.5,1.5,0,0,0-2.13,0L10.19,18.07,2.56,10.44A1.5,1.5,0,0,0,.44,12.56l8.69,8.69a1.5,1.5,0,0,0,2.12,0L29.94,2.56A1.51,1.51,0,0,0,29.94.44Z" transform="translate(0.5 0.5)"/>
  </symbol>

  <symbol viewBox="0 0 26.75 26.75" id="icon-no">
    <path d="M15.5,13.38,26.31,2.56a1.49,1.49,0,0,0,0-2.12,1.51,1.51,0,0,0-2.12,0L13.38,11.25,2.56.44A1.49,1.49,0,0,0,.44.44a1.51,1.51,0,0,0,0,2.12L11.25,13.38.44,24.19a1.49,1.49,0,0,0,0,2.12,1.5,1.5,0,0,0,2.12,0L13.38,15.5,24.19,26.31a1.5,1.5,0,0,0,2.12,0,1.49,1.49,0,0,0,0-2.12Z" transform="translate(0 0)"/>
  </symbol>

  <symbol viewBox="0 0 74.43 22.86" id="icon-logotype-white-mobile">
    <g>
    <path d="M0,1.45A1.29,1.29,0,0,1,1.26.16H8.44c5.08,0,8.43,2.71,8.43,7.15v.06c0,4.86-4.05,7.38-8.85,7.38H2.54v6.82a1.29,1.29,0,0,1-1.28,1.29A1.29,1.29,0,0,1,0,21.57Zm8.11,11c3.74,0,6.19-2,6.19-5V7.41c0-3.22-2.42-4.9-6.06-4.9H2.54v9.92Z"/>
    <path d="M21.73,1.29a1.27,1.27,0,1,1,2.54,0V21.57a1.27,1.27,0,1,1-2.54,0V1.29Z"/>
    <path d="M30.87,1.32A1.28,1.28,0,0,1,32.13.06h.35A1.57,1.57,0,0,1,33.77.8L47.45,18.25v-17a1.24,1.24,0,1,1,2.48,0V21.6a1.14,1.14,0,0,1-1.16,1.19h-.13A1.76,1.76,0,0,1,47.32,22l-14-17.87V21.6a1.24,1.24,0,1,1-2.48,0Z"/>
    <path d="M56.3,1.29a1.27,1.27,0,1,1,2.54,0V13.62L71.69.45a1.43,1.43,0,0,1,1-.45,1.27,1.27,0,0,1,1.22,1.26,1.25,1.25,0,0,1-.42.9l-8,7.92,8.56,10.56a1.39,1.39,0,0,1,.36.93,1.31,1.31,0,0,1-1.29,1.29,1.22,1.22,0,0,1-1-.58l-8.4-10.46-4.86,4.86v4.89a1.28,1.28,0,1,1-2.55,0V1.29Z"/>
  </g>
  </symbol>

  <symbol viewBox="0 0 146.3 40.38" id="icon-logotype-white-tablet">
    <g>
      <path d="M71.87,18.66a1.29,1.29,0,0,1,1.26-1.29h7.18c5.09,0,8.44,2.71,8.44,7.15v.06c0,4.86-4.06,7.38-8.86,7.38H74.42v6.82a1.28,1.28,0,1,1-2.55,0V18.66Zm8.12,11c3.73,0,6.18-2,6.18-5v-.06c0-3.22-2.41-4.89-6-4.89h-5.7v9.91Z" transform="translate(0)"/>
      <path d="M93.6,18.5a1.28,1.28,0,1,1,2.55,0V38.78a1.28,1.28,0,1,1-2.55,0Z" transform="translate(0)"/>
      <path d="M102.74,18.53A1.28,1.28,0,0,1,104,17.28h.35a1.55,1.55,0,0,1,1.29.74l13.69,17.45v-17a1.24,1.24,0,1,1,2.48,0V38.82A1.14,1.14,0,0,1,120.65,40h-.13a1.71,1.71,0,0,1-1.32-.78l-14-17.86V38.82A1.26,1.26,0,0,1,104,40.07a1.24,1.24,0,0,1-1.22-1.25V18.53Z" transform="translate(0)"/>
      <path d="M128.17,18.5a1.28,1.28,0,1,1,2.55,0V30.83l12.84-13.17a1.48,1.48,0,0,1,1-.45,1.28,1.28,0,0,1,1.23,1.26,1.29,1.29,0,0,1-.42.9l-8,7.92L146,37.85a1.44,1.44,0,0,1,.35.94A1.31,1.31,0,0,1,145,40.07a1.24,1.24,0,0,1-1-.58L135.58,29l-4.86,4.86v4.9a1.27,1.27,0,1,1-2.54,0V18.5Z" transform="translate(0)"/>
      <path d="M60.5,28.27" transform="translate(0)"/>
      <path d="M60.46,28,55.29,6.65C54.93,4.3,52.69,0,46.69,0a1.5,1.5,0,0,0,0,3c4.85,0,5.57,3.73,5.64,4.14l4.76,19.7H55a12,12,0,0,0-23.85,0H29.35a12,12,0,0,0-23.86,0H3.42L8.19,7.14C8.25,6.73,9,3,13.83,3a1.5,1.5,0,0,0,0-3c-6,0-8.24,4.3-8.6,6.65L.05,28a1.42,1.42,0,0,0,1.43,1.82h4a12,12,0,0,0,23.85,0h1.81a12,12,0,0,0,23.86,0h4A1.41,1.41,0,0,0,60.46,28ZM26.31,29.84a9,9,0,0,1-17.92-1.5,9.29,9.29,0,0,1,.13-1.5,9,9,0,0,1,17.79,0,8.29,8.29,0,0,1,.14,1.5A8.12,8.12,0,0,1,26.31,29.84Zm25.68,0a9,9,0,0,1-17.93-1.5,9.3,9.3,0,0,1,.14-1.5,9,9,0,0,1,17.79,0,9.3,9.3,0,0,1,.14,1.5A9.09,9.09,0,0,1,52,29.84Z" transform="translate(0)"/>
    </g>
  </symbol>

  <symbol viewBox="0 0 146.3 40.37" id="icon-logotype-white-desktop">
    <g>
      <path d="M71.87,18.66a1.29,1.29,0,0,1,1.26-1.29h7.18c5.09,0,8.44,2.71,8.44,7.15v.06c0,4.86-4.06,7.38-8.86,7.38H74.42v6.82a1.28,1.28,0,1,1-2.55,0V18.66Zm8.12,11c3.73,0,6.18-2,6.18-5v-.06c0-3.22-2.41-4.89-6-4.89h-5.7v9.91Z" transform="translate(0)"/>
      <path d="M93.6,18.5a1.28,1.28,0,1,1,2.55,0V38.78a1.28,1.28,0,1,1-2.55,0Z" transform="translate(0)"/>
      <path d="M102.74,18.53A1.28,1.28,0,0,1,104,17.28h.35a1.55,1.55,0,0,1,1.29.74l13.69,17.45v-17a1.24,1.24,0,1,1,2.48,0V38.82A1.14,1.14,0,0,1,120.65,40h-.13a1.71,1.71,0,0,1-1.32-.78l-14-17.86V38.82A1.26,1.26,0,0,1,104,40.07a1.24,1.24,0,0,1-1.22-1.25V18.53Z" transform="translate(0)"/>
      <path d="M128.17,18.5a1.28,1.28,0,1,1,2.55,0V30.83l12.84-13.17a1.48,1.48,0,0,1,1-.45,1.28,1.28,0,0,1,1.23,1.26,1.29,1.29,0,0,1-.42.9l-8,7.92L146,37.85a1.44,1.44,0,0,1,.35.94A1.31,1.31,0,0,1,145,40.07a1.24,1.24,0,0,1-1-.58L135.58,29l-4.86,4.86v4.9a1.27,1.27,0,1,1-2.54,0V18.5Z" transform="translate(0)"/>
    </g>
      <path fill="#d22856" d="M98.5,9.87a3.63,3.63,0,0,1-3.63-3.62,3.62,3.62,0,0,1-3.62,3.62,3.63,3.63,0,0,1,3.62,3.63A3.64,3.64,0,0,1,98.5,9.87Z" transform="translate(0)"/>
    <g>
      <path d="M43.09,19.31c.25,0,.49,0,.73,0a2.48,2.48,0,0,0-2.13-1.23,2,2,0,0,1-1.89-1.35,12.09,12.09,0,0,0-2.09.82l.19,0a2,2,0,0,1,2,2,2.83,2.83,0,0,1,0,.29A8.8,8.8,0,0,1,43.09,19.31Z" transform="translate(0)"/>
      <path d="M60.46,28,55.29,6.65C54.93,4.3,52.69,0,46.69,0a1.5,1.5,0,0,0,0,3c4.85,0,5.57,3.73,5.64,4.14l4.76,19.7H55a12,12,0,0,0-5.3-8.52,2.5,2.5,0,0,0-1.53,2.3,2.06,2.06,0,0,1,0,.26,9.21,9.21,0,0,1,4,7.47,9.3,9.3,0,0,1-.14,1.5,9,9,0,0,1-17.79,0,9.3,9.3,0,0,1-.14-1.5,9.34,9.34,0,0,1,.95-4,2,2,0,0,1-1.86-2,.71.71,0,0,0-.19-.49,11.84,11.84,0,0,0-1.79,5H29.35a12,12,0,0,0-23.86,0H3.42L8.19,7.14C8.25,6.73,9,3,13.83,3a1.5,1.5,0,0,0,0-3c-6,0-8.24,4.3-8.6,6.65L.05,28a1.42,1.42,0,0,0,1.43,1.82h4a12.65,12.65,0,0,0,.38,1.83.75.75,0,0,0,.1-.36,2,2,0,0,1,2-2,1.85,1.85,0,0,1,.48.07,9.1,9.1,0,0,1-.07-1.05,9.29,9.29,0,0,1,.13-1.5,9,9,0,0,1,17.8,0,9.29,9.29,0,0,1,.13,1.5,9.06,9.06,0,0,1-9,9A9,9,0,0,1,12,35.58a2,2,0,0,1-1.3.49.75.75,0,0,0-.74.75,2,2,0,0,1-.18.81,11.91,11.91,0,0,0,7.61,2.74A12,12,0,0,0,29.35,29.85h1.81a12,12,0,0,0,23.86,0h4A1.41,1.41,0,0,0,60.46,28Z" transform="translate(0)"/>
    </g>
    <g>
      <g>
        <path fill="#d22856" d="M50.69,16.12a4.49,4.49,0,0,1-4.5-4.49,4.5,4.5,0,0,1-4.5,4.49,4.51,4.51,0,0,1,4.5,4.5A4.5,4.5,0,0,1,50.69,16.12Z" transform="translate(0)"/>
      </g>
    </g>
    <g>
      <g>
        <path fill="#d22856" d="M37.9,19.63a2.75,2.75,0,0,1-2.75-2.75,2.75,2.75,0,0,1-2.74,2.75,2.74,2.74,0,0,1,2.74,2.74A2.75,2.75,0,0,1,37.9,19.63Z" transform="translate(0)"/>
      </g>
    </g>
    <g>
      <g>
        <path fill="#d22856" d="M10.73,34.07A2.75,2.75,0,0,1,8,31.32a2.75,2.75,0,0,1-2.74,2.75A2.75,2.75,0,0,1,8,36.82,2.75,2.75,0,0,1,10.73,34.07Z" transform="translate(0)"/>
      </g>
    </g>
  </symbol>

  <symbol viewBox="0 0 146.3 40.38" id="icon-logotype-blue-tablet">
    <g>
      <path d="M71.87,18.66a1.29,1.29,0,0,1,1.26-1.29h7.18c5.09,0,8.44,2.71,8.44,7.15v.06c0,4.86-4.06,7.38-8.86,7.38H74.42v6.82a1.28,1.28,0,1,1-2.55,0V18.66Zm8.12,11c3.73,0,6.18-2,6.18-5v-.06c0-3.22-2.41-4.89-6-4.89h-5.7v9.91Z" transform="translate(0)"/>
      <path d="M93.6,18.5a1.28,1.28,0,1,1,2.55,0V38.78a1.28,1.28,0,1,1-2.55,0Z" transform="translate(0)"/>
      <path d="M102.74,18.53A1.28,1.28,0,0,1,104,17.28h.35a1.55,1.55,0,0,1,1.29.74l13.69,17.45v-17a1.24,1.24,0,1,1,2.48,0V38.82A1.14,1.14,0,0,1,120.65,40h-.13a1.71,1.71,0,0,1-1.32-.78l-14-17.86V38.82A1.26,1.26,0,0,1,104,40.07a1.24,1.24,0,0,1-1.22-1.25V18.53Z" transform="translate(0)"/>
      <path d="M128.17,18.5a1.28,1.28,0,1,1,2.55,0V30.83l12.84-13.17a1.48,1.48,0,0,1,1-.45,1.28,1.28,0,0,1,1.23,1.26,1.29,1.29,0,0,1-.42.9l-8,7.92L146,37.85a1.44,1.44,0,0,1,.35.94A1.31,1.31,0,0,1,145,40.07a1.21,1.21,0,0,1-1-.58L135.59,29l-4.87,4.86v4.9a1.27,1.27,0,1,1-2.54,0V18.5Z" transform="translate(0)"/>
    </g>
    <path fill="#ffffff" d="M60.5,28.27" transform="translate(0)"/>
    <path fill="#d22856" d="M60.46,28,55.29,6.65C54.93,4.3,52.69,0,46.69,0a1.5,1.5,0,0,0,0,3c4.85,0,5.57,3.73,5.64,4.14l4.76,19.7H55a12,12,0,0,0-23.85,0H29.35a12,12,0,0,0-23.86,0H3.42L8.19,7.14C8.25,6.73,9,3,13.83,3a1.5,1.5,0,0,0,0-3c-6,0-8.24,4.3-8.6,6.65L.05,28a1.42,1.42,0,0,0,1.43,1.82h4a12,12,0,0,0,23.85,0h1.81a12,12,0,0,0,23.86,0h4A1.41,1.41,0,0,0,60.46,28ZM26.31,29.84a9,9,0,0,1-17.92-1.5,9.29,9.29,0,0,1,.13-1.5,9,9,0,0,1,17.79,0,8.29,8.29,0,0,1,.14,1.5A8.12,8.12,0,0,1,26.31,29.84Zm25.68,0a9,9,0,0,1-17.93-1.5,9.3,9.3,0,0,1,.14-1.5,9,9,0,0,1,17.79,0,9.3,9.3,0,0,1,.14,1.5A9.09,9.09,0,0,1,52,29.84Z" transform="translate(0)"/>
  </symbol>

  <symbol viewBox="0 0 146.3 40.37" id="icon-logotype-blue-desktop">
    <g>
      <path d="M71.87,18.66a1.29,1.29,0,0,1,1.26-1.29h7.18c5.09,0,8.44,2.71,8.44,7.15v.06c0,4.86-4.06,7.38-8.86,7.38H74.42v6.82a1.28,1.28,0,1,1-2.55,0V18.66Zm8.12,11c3.73,0,6.18-2,6.18-5v-.06c0-3.22-2.41-4.89-6-4.89h-5.7v9.91Z" transform="translate(0)"/>
      <path d="M93.6,18.5a1.28,1.28,0,1,1,2.55,0V38.78a1.28,1.28,0,1,1-2.55,0Z" transform="translate(0)"/>
      <path d="M102.74,18.53A1.28,1.28,0,0,1,104,17.28h.35a1.55,1.55,0,0,1,1.29.74l13.69,17.45v-17a1.24,1.24,0,1,1,2.48,0V38.82A1.14,1.14,0,0,1,120.65,40h-.13a1.71,1.71,0,0,1-1.32-.78l-14-17.86V38.82A1.26,1.26,0,0,1,104,40.07a1.24,1.24,0,0,1-1.22-1.25V18.53Z" transform="translate(0)"/>
      <path d="M128.17,18.5a1.28,1.28,0,1,1,2.55,0V30.83l12.84-13.17a1.48,1.48,0,0,1,1-.45,1.28,1.28,0,0,1,1.23,1.26,1.29,1.29,0,0,1-.42.9l-8,7.92L146,37.85a1.44,1.44,0,0,1,.35.94A1.31,1.31,0,0,1,145,40.07a1.21,1.21,0,0,1-1-.58L135.59,29l-4.87,4.86v4.9a1.27,1.27,0,1,1-2.54,0V18.5Z" transform="translate(0)"/>
    </g>
    <path fill="#d22856" d="M98.5,9.87a3.63,3.63,0,0,1-3.63-3.62,3.62,3.62,0,0,1-3.62,3.62,3.63,3.63,0,0,1,3.62,3.63A3.64,3.64,0,0,1,98.5,9.87Z" transform="translate(0)"/>
    <g>
      <path fill="#d22856" d="M43.09,19.31c.25,0,.49,0,.73,0a2.48,2.48,0,0,0-2.13-1.23,2,2,0,0,1-1.89-1.35,12.09,12.09,0,0,0-2.09.82l.19,0a2,2,0,0,1,2,2,2.83,2.83,0,0,1,0,.29A8.8,8.8,0,0,1,43.09,19.31Z" transform="translate(0)"/>
      <path fill="#d22856" d="M60.46,28,55.29,6.65C54.93,4.3,52.69,0,46.69,0a1.5,1.5,0,0,0,0,3c4.85,0,5.57,3.73,5.64,4.14l4.76,19.7H55a12,12,0,0,0-5.3-8.52,2.5,2.5,0,0,0-1.53,2.3,2.06,2.06,0,0,1,0,.26,9.21,9.21,0,0,1,4,7.47,9.3,9.3,0,0,1-.14,1.5,9,9,0,0,1-17.79,0,9.3,9.3,0,0,1-.14-1.5,9.34,9.34,0,0,1,.95-4,2,2,0,0,1-1.86-2,.71.71,0,0,0-.19-.49,11.84,11.84,0,0,0-1.79,5H29.35a12,12,0,0,0-23.86,0H3.42L8.19,7.14C8.25,6.73,9,3,13.83,3a1.5,1.5,0,0,0,0-3c-6,0-8.24,4.3-8.6,6.65L.05,28a1.42,1.42,0,0,0,1.43,1.82h4a12.65,12.65,0,0,0,.38,1.83.75.75,0,0,0,.1-.36,2,2,0,0,1,2-2,2.42,2.42,0,0,1,.48.06,8.79,8.79,0,0,1-.07-1,9.29,9.29,0,0,1,.13-1.5,9,9,0,0,1,17.8,0,9.29,9.29,0,0,1,.13,1.5A9,9,0,0,1,12,35.58a2,2,0,0,1-1.3.49.75.75,0,0,0-.74.75,2,2,0,0,1-.18.81,11.91,11.91,0,0,0,7.61,2.74A12,12,0,0,0,29.35,29.85h1.81a12,12,0,0,0,23.86,0h4A1.41,1.41,0,0,0,60.46,28Z" transform="translate(0)"/>
    </g>
    <g>
      <g>
        <path fill="#283645" d="M50.69,16.12a4.49,4.49,0,0,1-4.5-4.49,4.5,4.5,0,0,1-4.5,4.49,4.51,4.51,0,0,1,4.5,4.5A4.5,4.5,0,0,1,50.69,16.12Z" transform="translate(0)"/>
      </g>
    </g>
    <g>
      <g>
        <path fill="#283645" d="M37.9,19.63a2.75,2.75,0,0,1-2.75-2.75,2.75,2.75,0,0,1-2.74,2.75,2.74,2.74,0,0,1,2.74,2.74A2.75,2.75,0,0,1,37.9,19.63Z" transform="translate(0)"/>
      </g>
    </g>
    <g>
      <g>
        <path fill="#283645" d="M10.73,34.07A2.75,2.75,0,0,1,8,31.32a2.75,2.75,0,0,1-2.74,2.75A2.75,2.75,0,0,1,8,36.82,2.75,2.75,0,0,1,10.73,34.07Z" transform="translate(0)"/>
      </g>
    </g>
  </symbol>

  <symbol viewBox="0 0 154.38 195.33" id="icon-htmlacademy">
    <path d="M640.8,303l-.8-.08-76.69,8V451.49L640,497.12l76.69-45.63V310.92Zm65.86,142.82L640,485.45l-66.66-39.67V388.17l66.37,39.5.12,7.16-45.54-27.1-.07,6.95,45.72,27.48.11,7.35-45.7-27.19-.06,6.95L640,456.75l46.15-27.62v-7l-.06,0v-22.7l20.57-12.28Zm0-66.06-18.24,10.75-8.42,5L639.8,371.54l-.06,7,34.31,20.4-.3.18-.74.44-4.88,2.87L639.8,385.54l-.06,6.95,22.36,13.29-5.28,3.53-.13.08-16.89-9.95-.06,6.95,11.08,6.53-11.29,6.78-66-39.26,66.14-39.76h0Zm0-7-67-39.51h0l-66.28,39.47V320L640,313l66.66,7Z" transform="translate(-562.81 -302.38)"/>
  </symbol>

  <symbol viewBox="0 0 48 48" id="icon-crop">
    <path fill="none" d="M0,0H48V48H0Z"/>
    <path d="M34,30h4V14a4,4,0,0,0-4-4H18v4H34ZM14,34V2H10v8H2v4h8V34a4,4,0,0,0,4,4H34v8h4V38h8V34Z"/>
  </symbol>

  <symbol viewBox="0 0 48 48.71" id="icon-fill">
    <path fill="none" d="M0,0H48V48H0Z" transform="translate(0 0.71)"/>
    <path d="M33.12,17.88,15.24,0,12.41,2.83l4.76,4.76L6.88,17.88a3,3,0,0,0,0,4.24l11,11a3,3,0,0,0,4.24,0l11-11A3,3,0,0,0,33.12,17.88ZM10.41,20,20,10.42,29.59,20ZM38,23s-4,4.33-4,7a4,4,0,0,0,8,0C42,27.33,38,23,38,23Z" transform="translate(0 0.71)"/>
    <rect y="40.71" width="48" height="3"/>
  </symbol>

  <symbol viewBox="0 0 31.92 31.92" id="icon-contrast">
    <path d="M-19.46-4A12,12,0,0,1-7.5,8a12,12,0,0,1-12,12,12,12,0,0,1-12-12,12,12,0,0,1,12-12m0-4a16,16,0,0,0-16,16,16,16,0,0,0,16,16A16,16,0,0,0-3.5,8a16,16,0,0,0-16-16Z" transform="translate(35.42 7.96)"/>
    <path d="M-19.46,16.33a8.52,8.52,0,0,0,8.52-8.52A8.53,8.53,0,0,0-19.46-.71" transform="translate(35.42 7.96)"/>
  </symbol>
<!--возможно не нужен будет timer-->
  <symbol viewBox="0 0 238 276" id="icon-timer">
    <path d="M264.568,102.055l5.355-5.355c7.717-7.717,9.124-18.938,3.126-24.935c-5.997-5.997-17.217-4.59-24.934,3.127l-5.386,5.385 C221.768,63.292,196.11,51.875,168,48.297v-9.583h7.658c10.914,0,19.843-8.711,19.843-19.357S186.573,0,175.659,0h-53.317  c-10.913,0-19.842,8.711-19.842,19.357s8.929,19.357,19.842,19.357H130v9.583C56.681,57.629,0,120.244,0,196.097  c0,82.291,66.709,149,149,149c82.29,0,149-66.709,149-149C298,160.434,285.465,127.703,264.568,102.055z M149,306.264 c-60.844,0-110.167-49.323-110.167-110.167S88.156,85.93,149,85.93c60.843,0,110.167,49.323,110.167,110.167  S209.843,306.264,149,306.264z"/>
  </symbol>
</svg>
